# xmcd
#
# Track frame offsets:
#	150
#	20888
#	38790
#	59338
#	81456
#	99561
#	117772
#	136558
#	151961
#	170252
#	187059
#
# Disc length: 2728 seconds
#
# Revision: 1
# Processed by: cddbd v1.5.2PL0 Copyright (c) Steve Scherf et al.
# Submitted via: audiograbber 1.83.01
#
DISCID=8d0aa60b
DTITLE=Grapes - Private stock
DYEAR=1995
DGENRE=Blues
TTITLE0=Been gone too long
TTITLE1=If you got a gun
TTITLE2=Salvation
TTITLE3=Someday
TTITLE4=Jozetta
TTITLE5=Somewhere new
TTITLE6=New song
TTITLE7=One of these days
TTITLE8=Walking under ladders
TTITLE9=Mama flew
TTITLE10=Above the moon
EXTD=
EXTT0=
EXTT1=
EXTT2=
EXTT3=
EXTT4=
EXTT5=
EXTT6=
EXTT7=
EXTT8=
EXTT9=
EXTT10=
PLAYORDER=
